<svg xmlns="http://www.w3.org/2000/svg" viewBox="0 -0.5 128 152" shape-rendering="crispEdges"><script xmlns="" id="bw-fido2-page-script"/>
<metadata>Made with Pixels to Svg https://codepen.io/shshaw/pen/XbxvNj</metadata>
<path stroke="#05037e" d="M0 0h128M0 1h128M0 2h128M0 3h128M0 4h128M0 5h128M0 6h128M0 7h128M0 8h8M120 8h8M0 9h8M120 9h8M0 10h8M120 10h8M0 11h8M120 11h8M0 12h8M120 12h8M0 13h8M120 13h8M0 14h8M120 14h8M0 15h8M120 15h8M0 16h8M120 16h8M0 17h8M120 17h8M0 18h8M120 18h8M0 19h8M120 19h8M0 20h8M120 20h8M0 21h8M120 21h8M0 22h8M120 22h8M0 23h8M120 23h8M0 24h8M120 24h8M0 25h8M120 25h8M0 26h8M120 26h8M0 27h8M120 27h8M0 28h8M120 28h8M0 29h8M120 29h8M0 30h8M120 30h8M0 31h8M120 31h8M0 32h8M120 32h8M0 33h8M120 33h8M0 34h8M120 34h8M0 35h8M120 35h8M0 36h8M120 36h8M0 37h8M120 37h8M0 38h8M120 38h8M0 39h8M120 39h8M0 40h8M120 40h8M0 41h8M120 41h8M0 42h8M120 42h8M0 43h8M120 43h8M0 44h8M120 44h8M0 45h8M120 45h8M0 46h8M120 46h8M0 47h8M120 47h8M0 48h8M120 48h8M0 49h8M120 49h8M0 50h8M120 50h8M0 51h8M120 51h8M0 52h8M120 52h8M0 53h8M120 53h8M0 54h8M120 54h8M0 55h8M120 55h8M0 56h8M120 56h8M0 57h8M120 57h8M0 58h8M120 58h8M0 59h8M120 59h8M0 60h8M120 60h8M0 61h8M120 61h8M0 62h8M120 62h8M0 63h8M120 63h8M0 64h8M120 64h8M0 65h8M120 65h8M0 66h8M120 66h8M0 67h8M120 67h8M0 68h8M120 68h8M0 69h8M120 69h8M0 70h8M120 70h8M0 71h8M120 71h8M0 72h8M120 72h8M0 73h8M120 73h8M0 74h8M120 74h8M0 75h8M120 75h8M0 76h8M120 76h8M0 77h8M120 77h8M0 78h8M120 78h8M0 79h8M120 79h8M0 80h8M120 80h8M0 81h8M120 81h8M0 82h8M120 82h8M0 83h8M120 83h8M0 84h8M120 84h8M0 85h8M120 85h8M0 86h8M120 86h8M0 87h8M120 87h8M0 88h8M120 88h8M0 89h8M120 89h8M0 90h8M120 90h8M0 91h8M120 91h8M0 92h8M120 92h8M0 93h8M120 93h8M0 94h8M120 94h8M0 95h8M120 95h8M0 96h8M120 96h8M0 97h8M120 97h8M0 98h8M120 98h8M0 99h8M120 99h8M0 100h8M120 100h8M0 101h8M120 101h8M0 102h8M120 102h8M0 103h8M120 103h8M0 104h8M120 104h8M0 105h8M120 105h8M0 106h8M120 106h8M0 107h8M120 107h8M0 108h8M120 108h8M0 109h8M120 109h8M0 110h8M120 110h8M0 111h8M120 111h8M0 112h8M120 112h8M0 113h8M120 113h8M0 114h8M120 114h8M0 115h8M120 115h8M0 116h8M120 116h8M0 117h8M120 117h8M0 118h8M120 118h8M0 119h8M120 119h8M0 120h8M120 120h8M0 121h8M120 121h8M0 122h8M120 122h8M0 123h8M120 123h8M0 124h8M120 124h8M0 125h8M120 125h8M0 126h8M120 126h8M0 127h8M120 127h8M0 128h8M120 128h8M0 129h8M120 129h8M0 130h8M120 130h8M0 131h8M120 131h8M0 132h8M120 132h8M0 133h8M120 133h8M0 134h8M120 134h8M0 135h8M120 135h8M0 136h8M120 136h8M0 137h8M120 137h8M0 138h8M120 138h8M0 139h8M120 139h8M0 140h8M120 140h8M0 141h8M120 141h8M0 142h8M120 142h8M0 143h8M120 143h8M0 144h128M0 145h128M0 146h128M0 147h128M0 148h128M0 149h128M0 150h128M0 151h128"/>
<path stroke="#2ae7fe" d="M8 8h112M8 9h1M119 9h1M8 10h1M119 10h1M8 11h1M119 11h1M8 12h1M119 12h1M8 13h1M119 13h1M8 14h1M119 14h1M8 15h1M119 15h1M8 16h1M119 16h1M8 17h1M119 17h1M8 18h1M119 18h1M8 19h1M119 19h1M8 20h1M119 20h1M8 21h1M119 21h1M8 22h1M119 22h1M8 23h1M119 23h1M8 24h1M119 24h1M8 25h1M119 25h1M8 26h1M119 26h1M8 27h1M119 27h1M8 28h1M119 28h1M8 29h1M119 29h1M8 30h1M119 30h1M8 31h1M119 31h1M8 32h1M119 32h1M8 33h1M119 33h1M8 34h1M119 34h1M8 35h1M119 35h1M8 36h1M119 36h1M8 37h1M119 37h1M8 38h1M119 38h1M8 39h1M119 39h1M8 40h1M119 40h1M8 41h1M119 41h1M8 42h1M119 42h1M8 43h1M119 43h1M8 44h1M119 44h1M8 45h1M119 45h1M8 46h1M119 46h1M8 47h1M119 47h1M8 48h1M119 48h1M8 49h1M119 49h1M8 50h1M119 50h1M8 51h1M119 51h1M8 52h1M119 52h1M8 53h1M119 53h1M8 54h1M119 54h1M8 55h1M119 55h1M8 56h1M119 56h1M8 57h1M119 57h1M8 58h1M119 58h1M8 59h1M119 59h1M8 60h1M119 60h1M8 61h1M119 61h1M8 62h1M119 62h1M8 63h1M119 63h1M8 64h1M119 64h1M8 65h1M119 65h1M8 66h1M119 66h1M8 67h1M119 67h1M8 68h1M119 68h1M8 69h1M119 69h1M8 70h1M119 70h1M8 71h1M119 71h1M8 72h1M119 72h1M8 73h1M119 73h1M8 74h1M119 74h1M8 75h1M119 75h1M8 76h1M119 76h1M8 77h1M119 77h1M8 78h1M119 78h1M8 79h1M119 79h1M8 80h1M119 80h1M8 81h1M119 81h1M8 82h1M119 82h1M8 83h1M119 83h1M8 84h1M119 84h1M8 85h1M119 85h1M8 86h1M119 86h1M8 87h1M119 87h1M8 88h1M119 88h1M8 89h1M119 89h1M8 90h1M119 90h1M8 91h1M119 91h1M8 92h1M119 92h1M8 93h1M119 93h1M8 94h1M119 94h1M8 95h1M119 95h1M8 96h1M119 96h1M8 97h1M119 97h1M8 98h1M119 98h1M8 99h1M119 99h1M8 100h1M119 100h1M8 101h1M119 101h1M8 102h1M119 102h1M8 103h1M119 103h1M8 104h1M119 104h1M8 105h1M119 105h1M8 106h1M119 106h1M8 107h1M119 107h1M8 108h1M119 108h1M8 109h1M119 109h1M8 110h1M119 110h1M8 111h1M119 111h1M8 112h1M119 112h1M8 113h1M119 113h1M8 114h1M119 114h1M8 115h1M119 115h1M8 116h1M119 116h1M8 117h1M119 117h1M8 118h1M119 118h1M8 119h1M119 119h1M8 120h1M119 120h1M8 121h1M119 121h1M8 122h1M119 122h1M8 123h1M119 123h1M8 124h1M119 124h1M8 125h1M119 125h1M8 126h1M119 126h1M8 127h1M119 127h1M8 128h1M119 128h1M8 129h1M119 129h1M8 130h1M119 130h1M8 131h1M119 131h1M8 132h1M119 132h1M8 133h1M119 133h1M8 134h1M119 134h1M8 135h1M119 135h1M8 136h1M119 136h1M8 137h1M119 137h1M8 138h1M119 138h1M8 139h1M119 139h1M8 140h1M119 140h1M8 141h1M119 141h1M8 142h1M119 142h1M8 143h112"/>
<path stroke="#00ffff" d="M9 9h110M9 10h110M9 11h110M9 12h110M9 13h94M105 13h14M9 14h92M105 14h14M9 15h91M105 15h14M9 16h90M105 16h14M9 17h90M104 17h15M9 18h89M103 18h16M9 19h88M103 19h16M9 20h88M102 20h17M9 21h87M102 21h17M9 22h86M101 22h18M9 23h86M100 23h19M9 24h85M100 24h19M9 25h85M99 25h20M9 26h84M99 26h20M9 27h83M98 27h21M9 28h83M98 28h21M9 29h82M97 29h22M9 30h81M96 30h23M9 31h81M96 31h23M9 32h80M95 32h24M9 33h79M95 33h24M9 34h79M94 34h25M9 35h78M94 35h25M9 36h78M93 36h26M9 37h77M92 37h27M9 38h76M92 38h27M9 39h76M91 39h28M9 40h53M67 40h17M91 40h28M9 41h50M70 41h13M90 41h29M9 42h48M72 42h11M89 42h30M9 43h45M75 43h7M89 43h30M9 44h42M78 44h3M88 44h31M9 45h40M80 45h1M88 45h31M9 46h37M87 46h32M9 47h34M87 47h32M9 48h32M88 48h31M9 49h29M91 49h28M9 50h26M94 50h25M9 51h24M96 51h23M9 52h23M97 52h22M9 53h22M33 53h43M83 53h12M97 53h22M9 54h22M33 54h42M83 54h12M97 54h22M9 55h22M33 55h42M82 55h13M97 55h22M9 56h22M32 56h1M34 56h40M81 56h13M95 56h1M97 56h22M9 57h22M32 57h1M34 57h39M81 57h13M95 57h1M97 57h22M9 58h22M32 58h1M34 58h39M80 58h14M95 58h1M97 58h22M9 59h22M32 59h1M34 59h38M80 59h14M95 59h1M97 59h22M9 60h21M31 60h3M35 60h36M79 60h14M94 60h3M98 60h21M9 61h21M31 61h3M35 61h36M79 61h14M94 61h3M98 61h21M9 62h21M31 62h3M35 62h35M78 62h15M94 62h3M98 62h21M9 63h21M31 63h4M36 63h33M77 63h15M93 63h4M98 63h21M9 64h21M31 64h4M36 64h33M77 64h15M93 64h4M98 64h21M9 65h21M31 65h4M36 65h32M76 65h16M93 65h4M98 65h21M9 66h21M31 66h4M36 66h32M76 66h16M93 66h4M98 66h21M9 67h20M30 67h6M37 67h30M75 67h16M92 67h6M99 67h20M9 68h20M30 68h6M37 68h29M74 68h17M92 68h6M99 68h20M9 69h20M30 69h6M37 69h29M74 69h17M92 69h6M99 69h20M9 70h20M30 70h7M38 70h27M73 70h17M91 70h7M99 70h20M9 71h20M30 71h7M38 71h26M73 71h17M91 71h7M99 71h20M9 72h20M30 72h7M38 72h26M72 72h18M91 72h7M99 72h20M9 73h20M30 73h7M38 73h25M72 73h18M91 73h7M99 73h20M9 74h19M29 74h9M39 74h23M71 74h18M90 74h9M100 74h19M9 75h19M29 75h9M39 75h23M70 75h19M90 75h9M100 75h19M9 76h19M29 76h9M39 76h22M70 76h19M90 76h9M100 76h19M9 77h19M29 77h10M40 77h21M69 77h19M89 77h10M100 77h19M9 78h19M29 78h10M40 78h20M69 78h19M89 78h10M100 78h19M9 79h19M29 79h10M40 79h19M68 79h20M89 79h10M100 79h19M9 80h19M40 80h19M68 80h20M100 80h19M9 81h20M40 81h18M67 81h22M100 81h19M9 82h21M39 82h18M66 82h24M99 82h20M9 83h22M38 83h19M66 83h25M98 83h21M9 84h23M37 84h19M65 84h27M97 84h22M9 85h47M65 85h54M9 86h46M64 86h55M9 87h45M64 87h55M9 88h45M63 88h56M9 89h44M62 89h57M9 90h43M62 90h57M9 91h43M61 91h58M9 92h42M61 92h58M9 93h41M60 93h59M9 94h41M59 94h60M9 95h40M59 95h60M9 96h40M58 96h61M9 97h39M58 97h61M9 98h38M57 98h62M9 99h38M57 99h62M9 100h37M56 100h63M9 101h36M55 101h64M9 102h36M55 102h64M9 103h35M54 103h65M9 104h34M54 104h65M9 105h34M53 105h66M9 106h33M53 106h66M9 107h33M52 107h67M9 108h32M51 108h68M9 109h31M51 109h68M9 110h31M50 110h69M9 111h22M32 111h7M50 111h69M9 112h21M32 112h6M49 112h70M9 113h21M33 113h5M49 113h70M9 114h20M33 114h4M48 114h71M9 115h20M35 115h2M47 115h72M9 116h20M47 116h72M9 117h20M46 117h73M9 118h22M46 118h73M9 119h23M45 119h74M9 120h25M45 120h74M9 121h25M45 121h74M9 122h24M50 122h69M9 123h24M50 123h69M9 124h23M49 124h70M9 125h23M40 125h2M48 125h71M9 126h22M39 126h5M47 126h72M9 127h22M38 127h81M9 128h21M38 128h81M9 129h21M37 129h82M9 130h20M36 130h83M9 131h20M36 131h83M9 132h19M35 132h84M9 133h18M34 133h85M9 134h18M33 134h86M9 135h17M33 135h86M9 136h17M32 136h87M9 137h16M31 137h88M9 138h16M31 138h88M9 139h16M30 139h89M9 140h18M29 140h90M9 141h110M9 142h110"/>
<path stroke="#000000" d="M103 13h2M101 14h2M104 14h1M100 15h1M104 15h1M99 16h1M103 16h2M99 17h1M103 17h1M98 18h2M102 18h1M97 19h2M102 19h1M97 20h1M99 20h1M101 20h1M96 21h3M101 21h1M95 22h2M98 22h1M100 22h1M95 23h1M97 23h1M99 23h1M94 24h3M99 24h1M94 25h1M96 25h1M98 25h1M93 26h3M98 26h1M92 27h2M95 27h1M97 27h1M92 28h1M94 28h1M97 28h1M91 29h3M96 29h1M90 30h2M93 30h1M95 30h1M90 31h1M92 31h1M95 31h1M89 32h2M92 32h1M94 32h1M88 33h2M91 33h1M94 33h1M88 34h3M93 34h1M87 35h2M90 35h1M93 35h1M87 36h1M89 36h1M92 36h1M86 37h2M89 37h1M91 37h1M85 38h2M88 38h1M91 38h1M85 39h1M87 39h1M90 39h1M62 40h5M84 40h2M87 40h1M90 40h1M59 41h3M67 41h3M83 41h2M86 41h1M89 41h1M57 42h2M70 42h2M83 42h2M86 42h1M88 42h1M54 43h3M72 43h3M82 43h2M85 43h1M88 43h1M51 44h3M75 44h3M81 44h2M84 44h1M87 44h1M49 45h2M78 45h2M81 45h2M84 45h1M87 45h1M46 46h3M80 46h3M86 46h1M43 47h3M83 47h4M41 48h2M85 48h3M38 49h3M88 49h3M35 50h3M91 50h3M33 51h2M94 51h2M32 52h65M31 53h2M76 53h2M79 53h1M82 53h1M95 53h2M31 54h2M75 54h2M78 54h1M82 54h1M95 54h2M31 55h2M75 55h2M78 55h1M81 55h1M95 55h2M31 56h1M33 56h1M74 56h2M77 56h1M80 56h1M94 56h1M96 56h1M31 57h1M33 57h1M73 57h2M77 57h1M80 57h1M94 57h1M96 57h1M31 58h1M33 58h1M73 58h2M76 58h1M79 58h1M94 58h1M96 58h1M31 59h1M33 59h1M72 59h2M75 59h1M79 59h1M94 59h1M96 59h1M30 60h1M34 60h1M71 60h2M75 60h1M78 60h1M93 60h1M97 60h1M30 61h1M34 61h1M71 61h2M74 61h1M78 61h1M93 61h1M97 61h1M30 62h1M34 62h1M70 62h2M74 62h1M77 62h1M93 62h1M97 62h1M30 63h1M35 63h1M69 63h1M71 63h1M73 63h1M76 63h1M92 63h1M97 63h1M30 64h1M35 64h1M69 64h2M72 64h1M76 64h1M92 64h1M97 64h1M30 65h1M35 65h1M68 65h2M72 65h1M75 65h1M92 65h1M97 65h1M30 66h1M35 66h1M68 66h2M71 66h1M75 66h1M92 66h1M97 66h1M29 67h1M36 67h1M67 67h2M71 67h1M74 67h1M91 67h1M98 67h1M29 68h1M36 68h1M66 68h2M70 68h1M73 68h1M91 68h1M98 68h1M29 69h1M36 69h1M66 69h2M69 69h1M73 69h1M91 69h1M98 69h1M29 70h1M37 70h1M65 70h2M69 70h1M72 70h1M90 70h1M98 70h1M29 71h1M37 71h1M64 71h1M66 71h1M68 71h1M72 71h1M90 71h1M98 71h1M29 72h1M37 72h1M64 72h2M67 72h1M71 72h1M90 72h1M98 72h1M29 73h1M37 73h1M63 73h2M67 73h1M71 73h1M90 73h1M98 73h1M28 74h1M38 74h1M62 74h1M64 74h1M66 74h1M70 74h1M89 74h1M99 74h1M28 75h1M38 75h1M62 75h2M66 75h1M69 75h1M89 75h1M99 75h1M28 76h1M38 76h1M61 76h2M65 76h1M69 76h1M89 76h1M99 76h1M28 77h1M39 77h1M61 77h2M64 77h1M68 77h1M88 77h1M99 77h1M28 78h1M39 78h1M60 78h2M64 78h1M68 78h1M88 78h1M99 78h1M28 79h1M39 79h1M59 79h1M61 79h1M63 79h1M67 79h1M88 79h1M99 79h1M28 80h12M59 80h2M63 80h1M67 80h1M88 80h12M58 81h2M66 81h1M89 81h1M99 81h1M57 82h1M59 82h1M61 82h1M65 82h1M90 82h1M98 82h1M57 83h2M61 83h1M65 83h1M91 83h1M97 83h1M56 84h1M58 84h1M60 84h1M64 84h1M92 84h5M56 85h2M60 85h1M64 85h1M55 86h2M59 86h1M63 86h1M54 87h1M56 87h1M58 87h1M63 87h1M54 88h2M58 88h1M62 88h1M53 89h2M57 89h1M61 89h1M52 90h1M54 90h1M57 90h1M61 90h1M52 91h2M56 91h1M60 91h1M51 92h1M53 92h1M55 92h1M60 92h1M50 93h1M52 93h1M55 93h1M59 93h1M50 94h1M54 94h1M58 94h1M49 95h1M51 95h1M54 95h1M58 95h1M49 96h2M53 96h1M57 96h1M48 97h2M52 97h1M57 97h1M47 98h1M49 98h1M52 98h1M56 98h1M47 99h2M51 99h1M56 99h1M46 100h1M48 100h1M51 100h1M55 100h1M45 101h1M47 101h1M50 101h1M54 101h1M45 102h2M49 102h1M54 102h1M44 103h1M46 103h1M49 103h1M53 103h1M43 104h1M45 104h1M48 104h1M53 104h1M43 105h1M48 105h1M52 105h1M42 106h1M44 106h1M47 106h1M52 106h1M42 107h2M46 107h1M51 107h1M41 108h1M43 108h1M46 108h1M50 108h1M40 109h1M42 109h1M45 109h1M50 109h1M40 110h2M45 110h1M49 110h1M31 111h1M39 111h1M41 111h1M44 111h1M49 111h1M30 112h2M38 112h1M40 112h1M43 112h1M48 112h1M30 113h1M32 113h1M38 113h1M40 113h1M43 113h1M48 113h1M29 114h2M32 114h1M37 114h1M42 114h1M47 114h1M29 115h1M33 115h2M37 115h1M42 115h1M46 115h1M29 116h1M35 116h2M46 116h1M29 117h2M37 117h2M45 117h1M31 118h1M39 118h1M45 118h1M32 119h2M40 119h2M44 119h1M34 120h2M42 120h3M34 121h4M44 121h1M33 122h2M37 122h1M45 122h5M33 123h1M38 123h2M49 123h1M32 124h2M40 124h2M48 124h1M32 125h1M39 125h1M42 125h2M47 125h1M31 126h2M38 126h1M44 126h3M31 127h1M37 127h1M30 128h2M37 128h1M30 129h1M36 129h1M29 130h2M35 130h1M29 131h1M35 131h1M28 132h1M34 132h1M27 133h2M33 133h1M27 134h1M32 134h1M26 135h2M32 135h1M26 136h1M31 136h1M25 137h1M30 137h1M25 138h1M30 138h1M25 139h2M29 139h1M27 140h2"/>
<path stroke="#bfbfbf" d="M103 14h1M102 15h1M101 16h1M100 17h1M102 17h1M101 18h1M100 19h1M100 21h1M97 22h1M99 22h1M96 23h1M98 23h1M97 24h1M97 26h1M94 27h1M96 27h1M93 28h1M95 28h1M94 29h1M94 31h1M91 32h1M93 32h1M90 33h1M92 33h1M91 34h1M92 35h1M91 36h1M88 37h1M90 37h1M87 38h1M89 38h1M86 39h1M88 39h1M89 40h1M88 41h1M85 42h1M87 42h1M84 43h1M86 43h1M83 44h1M85 44h1M86 45h1M83 46h1M85 46h1M78 53h1M80 53h1M77 54h1M79 54h1M81 54h1M80 55h1M79 56h1M76 57h1M78 57h1M75 58h1M77 58h1M74 59h1M76 59h1M78 59h1M73 60h1M77 60h1M76 61h1M73 62h1M75 62h1M70 63h1M72 63h1M74 63h1M71 64h1M73 64h1M75 64h1M70 65h1M74 65h1M73 66h1M70 67h1M72 67h1M69 68h1M71 68h1M68 69h1M70 69h1M72 69h1M67 70h1M71 70h1M70 71h1M69 72h1M66 73h1M68 73h1M70 73h1M63 74h1M65 74h1M67 74h1M69 74h1M64 75h1M68 75h1M63 76h1M67 76h1M66 77h1M63 78h1M65 78h1M67 78h1M60 79h1M62 79h1M64 79h1M66 79h1M61 80h1M65 80h1M60 81h1M62 81h1M64 81h1M63 82h1M60 83h1M62 83h1M64 83h1M57 84h1M59 84h1M61 84h1M63 84h1M58 85h1M62 85h1M57 86h1M61 86h1M60 87h1M62 87h1M57 88h1M59 88h1M61 88h1M56 89h1M58 89h1M60 89h1M53 90h1M55 90h1M59 90h1M54 91h1M58 91h1M57 92h1M59 92h1M54 93h1M56 93h1M58 93h1M51 94h1M53 94h1M55 94h1M57 94h1M50 95h1M52 95h1M56 95h1M51 96h1M55 96h1M50 97h1M54 97h1M56 97h1M51 98h1M53 98h1M55 98h1M50 99h1M52 99h1M54 99h1M47 100h1M49 100h1M53 100h1M46 101h1M48 101h1M52 101h1M47 102h1M51 102h1M53 102h1M48 103h1M50 103h1M52 103h1M47 104h1M49 104h1M51 104h1M44 105h1M46 105h1M50 105h1M43 106h1M45 106h1M49 106h1M51 106h1M44 107h1M48 107h1M50 107h1M45 108h1M47 108h1M49 108h1M44 109h1M46 109h1M48 109h1M43 110h1M47 110h1M40 111h1M42 111h1M46 111h1M48 111h1M39 112h1M41 112h1M45 112h1M47 112h1M42 113h1M44 113h1M46 113h1M39 114h1M41 114h1M43 114h1M45 114h1M38 115h1M40 115h1M44 115h1M37 116h1M39 116h1M41 116h1M43 116h1M45 116h1M40 117h1M42 117h1M44 117h1M41 118h1M43 118h1M42 119h1"/>
<path stroke="#fffdff" d="M101 15h1M103 15h1M100 16h1M102 16h1M101 17h1M100 18h1M99 19h1M101 19h1M98 20h1M100 20h1M99 21h1M98 24h1M95 25h1M97 25h1M96 26h1M96 28h1M95 29h1M92 30h1M94 30h1M91 31h1M93 31h1M93 33h1M92 34h1M89 35h1M91 35h1M88 36h1M90 36h1M90 38h1M89 39h1M86 40h1M88 40h1M85 41h1M87 41h1M87 43h1M86 44h1M83 45h1M85 45h1M84 46h1M81 53h1M80 54h1M77 55h1M79 55h1M76 56h1M78 56h1M75 57h1M79 57h1M78 58h1M77 59h1M74 60h1M76 60h1M73 61h1M75 61h1M77 61h1M72 62h1M76 62h1M75 63h1M74 64h1M71 65h1M73 65h1M70 66h1M72 66h1M74 66h1M69 67h1M73 67h1M68 68h1M72 68h1M71 69h1M68 70h1M70 70h1M65 71h1M67 71h1M69 71h1M71 71h1M66 72h1M68 72h1M70 72h1M65 73h1M69 73h1M68 74h1M65 75h1M67 75h1M64 76h1M66 76h1M68 76h1M63 77h1M65 77h1M67 77h1M62 78h1M66 78h1M65 79h1M62 80h1M64 80h1M66 80h1M61 81h1M63 81h1M65 81h1M58 82h1M60 82h1M62 82h1M64 82h1M59 83h1M63 83h1M62 84h1M59 85h1M61 85h1M63 85h1M58 86h1M60 86h1M62 86h1M55 87h1M57 87h1M59 87h1M61 87h1M56 88h1M60 88h1M55 89h1M59 89h1M56 90h1M58 90h1M60 90h1M55 91h1M57 91h1M59 91h1M52 92h1M54 92h1M56 92h1M58 92h1M51 93h1M53 93h1M57 93h1M52 94h1M56 94h1M53 95h1M55 95h1M57 95h1M52 96h1M54 96h1M56 96h1M51 97h1M53 97h1M55 97h1M48 98h1M50 98h1M54 98h1M49 99h1M53 99h1M55 99h1M50 100h1M52 100h1M54 100h1M49 101h1M51 101h1M53 101h1M48 102h1M50 102h1M52 102h1M45 103h1M47 103h1M51 103h1M44 104h1M46 104h1M50 104h1M52 104h1M45 105h1M47 105h1M49 105h1M51 105h1M46 106h1M48 106h1M50 106h1M45 107h1M47 107h1M49 107h1M42 108h1M44 108h1M48 108h1M41 109h1M43 109h1M47 109h1M49 109h1M42 110h1M44 110h1M46 110h1M48 110h1M43 111h1M45 111h1M47 111h1M42 112h1M44 112h1M46 112h1M39 113h1M41 113h1M45 113h1M47 113h1M38 114h1M40 114h1M44 114h1M46 114h1M39 115h1M41 115h1M43 115h1M45 115h1M38 116h1M40 116h1M42 116h1M44 116h1M39 117h1M41 117h1M43 117h1M40 118h1M42 118h1M44 118h1M43 119h1"/>
<path stroke="#f5f54f" d="M62 41h5M59 42h11M57 43h15M54 44h21M51 45h27M49 46h31M46 47h37M43 48h42M41 49h47M38 50h53M35 51h59M32 81h7M92 81h7M32 82h6M93 82h5M33 83h4M93 83h4M31 113h1M31 114h1M30 115h3M30 116h5M31 117h6M32 118h7M34 119h6M36 120h6M38 121h6M38 122h7M40 123h9M42 124h6M44 125h3"/>
<path stroke="#001b1b" d="M29 81h1M39 81h1M30 82h1M38 82h1M31 83h1M37 83h1M32 84h5"/>
<path stroke="#9fa738" d="M30 81h2M90 81h2M31 82h1M91 82h2M32 83h1M92 83h1"/>
<path stroke="#b9c1c1" d="M35 122h1M34 123h2M34 124h1M33 125h1M33 126h1M32 127h1M32 128h1M31 129h1M31 130h1M30 131h1M29 132h2M29 133h1M28 134h1M28 135h1M27 136h1M26 137h1M26 138h1"/>
<path stroke="#f7ffff" d="M36 122h1M36 123h2M35 124h5M34 125h5M34 126h4M33 127h4M33 128h4M32 129h4M32 130h3M31 131h4M31 132h3M30 133h3M29 134h3M29 135h3M28 136h3M27 137h3M27 138h3M27 139h2"/>
</svg>